<svg width="30" height="27" viewBox="0 0 30 27" fill="none" xmlns="http://www.w3.org/2000/svg">
<path d="M29.1597 13.5616C29.1597 12.6815 29.0794 11.7967 28.9082 10.9309H15.1718V15.9164H23.038C22.7115 17.5243 21.6627 18.9467 20.1269 19.8506V23.0854H24.8199C27.5757 20.8305 29.1597 17.5005 29.1597 13.5616Z" fill="#757492"/>
<path d="M15.1727 26.2097C19.1005 26.2097 22.4128 25.0632 24.8262 23.0843L20.1332 19.8494C18.8275 20.6391 17.1419 21.0863 15.1781 21.0863C11.3788 21.0863 8.15738 18.8076 7.00153 15.744H2.15875V19.0787C4.63098 23.4506 9.6664 26.2097 15.1727 26.2097Z" fill="#757492"/>
<path d="M6.99525 15.7441C6.38522 14.1362 6.38522 12.3951 6.99525 10.7872V7.45239H2.15782C0.0922788 11.1106 0.0932134 15.4205 2.15875 19.0787L6.99525 15.7441Z" fill="#757492"/>
<path d="M15.1727 5.44074C17.249 5.4122 19.2556 6.10674 20.7593 7.38166L24.9171 3.68535C22.2844 1.48754 18.7901 0.279221 15.1727 0.317279C9.6664 0.317279 4.63098 3.07643 2.15875 7.45302L6.99618 10.7878C8.14668 7.71942 11.3734 5.44074 15.1727 5.44074Z" fill="#757492"/>
</svg>
